<svg viewBox="0 0 400 280" xmlns="http://www.w3.org/2000/svg">
  <defs>
    <linearGradient id="sky1" x1="0" y1="0" x2="0" y2="1">
      <stop offset="0%" stop-color="#2a1a3e"/>
      <stop offset="100%" stop-color="#6b2f3a"/>
    </linearGradient>
  </defs>
  <rect width="400" height="280" fill="url(#sky1)"/>
  <rect y="230" width="400" height="50" fill="#1c1420"/>

  <!-- varal de luzinhas -->
  <path d="M0 30 Q100 70 200 32 Q300 -6 400 34" fill="none" stroke="#5a4a55" stroke-width="2"/>
  <g fill="#ffd76b">
    <circle cx="30" cy="38" r="4"/><circle cx="80" cy="55" r="4"/><circle cx="130" cy="63" r="4"/>
    <circle cx="180" cy="55" r="4"/><circle cx="230" cy="35" r="4"/><circle cx="280" cy="15" r="4"/>
    <circle cx="330" cy="18" r="4"/><circle cx="370" cy="32" r="4"/>
  </g>

  <!-- balões -->
  <g>
    <circle cx="70" cy="110" r="20" fill="#e67014"/>
    <path d="M70 130 L64 190" stroke="#c9b8a0" stroke-width="1.5"/>
    <circle cx="335" cy="95" r="18" fill="#f4ff2a" opacity="0.9"/>
    <path d="M335 113 L340 175" stroke="#c9b8a0" stroke-width="1.5"/>
    <circle cx="300" cy="130" r="14" fill="#fff8f0"/>
    <path d="M300 144 L296 190" stroke="#c9b8a0" stroke-width="1.5"/>
  </g>

  <!-- food truck -->
  <g transform="translate(115,145)">
    <rect x="0" y="0" width="170" height="80" rx="6" fill="#241a1a" stroke="#0e0808" stroke-width="3"/>
    <path d="M20 0 L150 0 L160 -14 L10 -14 Z" fill="#e67014" stroke="#0e0808" stroke-width="3"/>
    <rect x="25" y="14" width="90" height="42" fill="#fff8f0" opacity="0.9"/>
    <circle cx="35" cy="88" r="12" fill="#171310" stroke="#0e0808" stroke-width="2"/>
    <circle cx="135" cy="88" r="12" fill="#171310" stroke="#0e0808" stroke-width="2"/>
    <rect x="120" y="20" width="35" height="30" rx="4" fill="#e67014" opacity="0.85"/>
  </g>

  <ellipse cx="200" cy="238" rx="150" ry="10" fill="#000" opacity="0.25"/>
</svg>
